<svg width="13" height="13" viewBox="0 0 13 13" fill="none" xmlns="http://www.w3.org/2000/svg">
<path d="M1.82995 3.67284H2.7514V2.75951H3.67921V1.85523H4.62428V0.90314H5.55345V0H7.39499V0.894074H8.3278V1.84957H9.26696V2.75837H10.1934V3.66627H11.0953V4.59071H12.0815V5.54304H13V6.47836H12.087V13H0.919632V6.48493H0V5.54847H0.916907V4.5991H1.82995V3.67262V3.67284ZM9.25606 4.61587V3.73222H8.33438V2.77809H7.37387V1.83756H5.57571V2.79169H4.65244V3.73494H3.69443V4.62131H2.78161V5.57182H1.90468V12.0479H4.62564V7.4513H8.36663V12.052H11.0817V5.58224H10.165V4.61587H9.25629H9.25606ZM5.58116 8.38005V12.0649H7.39249V8.38005H5.58116Z" fill="#787878"/>
<rect x="1.7334" y="6.06641" width="3.46667" height="6.06667" fill="#787878"/>
<rect x="7.80005" y="6.06641" width="3.46667" height="6.06667" fill="#787878"/>
<rect x="2.6001" y="4.33301" width="7.8" height="3.46667" fill="#787878"/>
<rect x="3.46655" y="3.4668" width="6.06667" height="0.866667" fill="#787878"/>
<rect x="5.19995" y="1.7334" width="2.6" height="0.866667" fill="#787878"/>
<path d="M7.87246 2.1543L7.96048 2.15853C8.39761 2.20281 8.73913 2.57215 8.73913 3.02096C8.73913 3.46977 8.39761 3.83912 7.96048 3.8834L7.87246 3.88763H4.84421C4.36556 3.88763 3.97754 3.49961 3.97754 3.02096C3.97754 2.54232 4.36556 2.1543 4.84421 2.1543H7.87246Z" fill="#787878"/>
<path d="M2.34801 5.01855C2.82666 5.01855 3.21468 5.40657 3.21468 5.88522C3.21468 6.36387 2.82666 6.75189 2.34801 6.75189H1.88083C1.40218 6.75189 1.01416 6.36387 1.01416 5.88522C1.01416 5.40657 1.40218 5.01855 1.88083 5.01855H2.34801Z" fill="#787878"/>
<path d="M11.184 5.04297C11.6626 5.04314 12.0507 5.43109 12.0507 5.90964C12.0507 6.38818 11.6626 6.77613 11.184 6.7763H10.0542C9.57552 6.7763 9.1875 6.38828 9.1875 5.90964C9.1875 5.43099 9.57552 5.04297 10.0542 5.04297H11.184Z" fill="#787878"/>
</svg>
